<svg data-v-423bf9ae="" xmlns="http://www.w3.org/2000/svg" viewBox="0 0 487 90" class="iconLeft"><!----><!----><defs data-v-423bf9ae=""><linearGradient data-v-423bf9ae="" gradientTransform="rotate(25)" id="70668004-121a-46d1-9ba4-4e0b61024aa8" x1="0%" y1="0%" x2="100%" y2="0%"><stop data-v-423bf9ae="" offset="0%" style="stop-color: rgb(255, 129, 21); stop-opacity: 1;"></stop><stop data-v-423bf9ae="" offset="100%" style="stop-color: rgb(14, 181, 117); stop-opacity: 1;"></stop></linearGradient></defs><g data-v-423bf9ae="" id="ad675179-d669-48bf-815f-da27a530e89f" fill="url(#70668004-121a-46d1-9ba4-4e0b61024aa8)" transform="matrix(5.628517904206723,0,0,5.628517904206723,106.84802876633671,14.437147821212573)"><path d="M2.63 5.90L2.63 6.55L2.63 8.09L2.63 8.09Q2.63 8.33 2.65 8.62L2.65 8.62L2.65 8.62Q2.66 8.91 2.69 9.25L2.69 9.25L2.69 9.25Q2.69 9.57 2.72 9.75L2.72 9.75L2.72 9.75Q2.75 9.94 2.80 10.07L2.80 10.07L3.90 10.22L3.90 10.57L2.07 10.53L0.56 10.57L0.56 10.22L1.38 10.07L1.47 9.25L1.51 8.09L1.51 3.72L1.39 1.74L0.60 1.60L0.60 1.24L2.07 1.27L4.83 1.20L4.83 1.20Q6.29 1.20 7.03 1.79L7.03 1.79L7.03 1.79Q7.77 2.38 7.77 3.63L7.77 3.63L7.77 3.63Q7.77 4.93 6.73 5.81L6.73 5.81L6.73 5.81Q6.22 6.26 5.58 6.48L5.58 6.48L5.58 6.48Q4.94 6.70 4.17 6.70L4.17 6.70L3.99 6.70L3.99 6.70Q3.72 6.70 3.50 6.66L3.50 6.66L3.50 6.66Q3.34 6.66 3.21 6.64L3.21 6.64L3.21 6.64Q2.98 6.58 2.86 6.55L2.86 6.55L3.15 5.90L3.79 6.03L4.44 6.05L4.44 6.05Q5.31 6.05 5.90 5.45L5.90 5.45L5.90 5.45Q6.49 4.84 6.49 3.93L6.49 3.93L6.49 3.93Q6.49 2.98 5.87 2.41L5.87 2.41L5.87 2.41Q5.24 1.85 4.18 1.85L4.18 1.85L4.18 1.85Q3.98 1.85 3.81 1.85L3.81 1.85L3.81 1.85Q3.63 1.85 3.40 1.87L3.40 1.87L3.40 1.87Q3.05 1.87 2.63 2.00L2.63 2.00L2.63 5.90ZM12.77 6.64L12.77 6.64L12.08 6.61L12.08 6.61Q11.41 6.61 10.84 6.79L10.84 6.79L10.84 6.79Q10.26 6.96 9.83 7.24L9.83 7.24L9.83 7.24Q9.44 7.53 9.23 7.87L9.23 7.87L9.23 7.87Q9.03 8.21 9.03 8.65L9.03 8.65L9.03 8.65Q9.03 9.13 9.37 9.51L9.37 9.51L9.37 9.51Q9.73 9.88 10.32 9.88L10.32 9.88L10.32 9.88Q11.45 9.88 12.08 9.00L12.08 9.00L12.08 9.00Q12.40 8.54 12.59 7.95L12.59 7.95L12.59 7.95Q12.77 7.35 12.77 6.64ZM12.76 8.79L12.76 8.79L12.76 8.79Q12.13 10.00 11.43 10.37L11.43 10.37L11.43 10.37Q10.72 10.74 10.08 10.74L10.08 10.74L10.08 10.74Q9.10 10.74 8.50 10.15L8.50 10.15L8.50 10.15Q7.90 9.57 7.90 8.78L7.90 8.78L7.90 8.78Q7.90 7.64 9.10 6.84L9.10 6.84L9.10 6.84Q10.31 6.04 12.20 6.04L12.20 6.04L12.83 6.04L12.83 5.58L12.83 5.58Q12.83 4.60 12.43 4.19L12.43 4.19L12.43 4.19Q12.03 3.77 11.20 3.77L11.20 3.77L11.20 3.77Q10.53 3.77 9.93 3.99L9.93 3.99L9.29 4.24L9.33 4.98L9.04 5.08L8.42 3.67L8.42 3.67Q8.72 3.54 9.41 3.32L9.41 3.32L9.41 3.32Q10.10 3.11 11.37 3.11L11.37 3.11L11.37 3.11Q12.40 3.11 13.08 3.61L13.08 3.61L13.08 3.61Q13.75 4.11 13.75 4.96L13.75 4.96L13.75 8.22L13.75 8.22Q13.75 9.01 13.82 9.44L13.82 9.44L13.82 9.44Q13.89 9.70 13.96 9.85L13.96 9.85L13.96 9.85Q14 9.94 14.12 10.06L14.12 10.06L14.67 10.22L14.67 10.58L13.94 10.56L13.54 10.54L13.54 10.54Q13.42 10.54 13.30 10.54L13.30 10.54L13.30 10.54Q13.19 10.54 13.03 10.57L13.03 10.57L13.03 10.57Q12.92 10.57 12.84 10.04L12.84 10.04L12.84 10.04Q12.82 9.78 12.81 9.64L12.81 9.64L12.81 9.64Q12.76 9.11 12.76 8.79ZM20.92 3.11L20.91 5.61L20.91 7.94L20.92 9.51L20.92 9.51Q20.92 10.06 20.97 10.07L20.97 10.07L21.76 10.22L21.77 10.57L21.05 10.53L20.33 10.53L19.80 10.56L19.81 8.98L19.81 8.98Q19.29 9.87 18.62 10.30L18.62 10.30L18.62 10.30Q17.94 10.74 17.19 10.74L17.19 10.74L17.19 10.74Q16.29 10.74 15.70 10.13L15.70 10.13L15.70 10.13Q15.12 9.52 15.12 8.54L15.12 8.54L15.12 5.95L15.05 3.97L14.15 3.82L14.15 3.47L14.15 3.47Q14.38 3.47 14.57 3.44L14.57 3.44L14.57 3.44Q14.76 3.41 15.07 3.34L15.07 3.34L15.07 3.34Q15.56 3.26 15.98 3.11L15.98 3.11L16.23 3.11L16.17 5.53L16.17 7.49L16.17 7.49Q16.17 8.09 16.25 8.53L16.25 8.53L16.25 8.53Q16.34 8.96 16.53 9.27L16.53 9.27L16.53 9.27Q16.90 9.88 17.69 9.88L17.69 9.88L17.69 9.88Q18.66 9.88 19.25 9.06L19.25 9.06L19.25 9.06Q19.81 8.21 19.81 6.97L19.81 6.97L19.81 5.95L19.75 3.97L18.85 3.82L18.85 3.47L18.85 3.47Q19.06 3.47 19.26 3.44L19.26 3.44L19.26 3.44Q19.46 3.41 19.75 3.34L19.75 3.34L19.75 3.34Q20.26 3.25 20.66 3.11L20.66 3.11L20.92 3.11ZM23.14 0.95L22.25 0.81L22.25 0.45L23.13 0.32L23.13 0.32Q23.45 0.26 24.02 0.10L24.02 0.10L24.28 0.10L24.26 2.01L24.26 7.82L24.31 10.07L25.09 10.22L25.09 10.57L23.73 10.53L22.34 10.57L22.34 10.22L23.17 10.07L23.21 7.83L23.21 3.31L23.14 0.95ZM31.24 5.81L31.24 5.81L31.24 5.81Q31.24 7.52 32.31 8.71L32.31 8.71L32.31 8.71Q33.39 9.90 34.95 9.90L34.95 9.90L34.95 9.90Q35.82 9.90 36.55 9.53L36.55 9.53L36.55 9.53Q37.28 9.15 37.98 8.54L37.98 8.54L38.32 8.88L38.32 8.88Q37.93 9.31 37.49 9.64L37.49 9.64L37.49 9.64Q37.06 9.97 36.53 10.25L36.53 10.25L36.53 10.25Q35.54 10.76 34.45 10.76L34.45 10.76L34.45 10.76Q32.61 10.76 31.33 9.35L31.33 9.35L31.33 9.35Q30.05 7.94 30.05 5.91L30.05 5.91L30.05 5.91Q30.05 3.81 31.57 2.44L31.57 2.44L31.57 2.44Q33.09 1.06 35.39 1.06L35.39 1.06L35.39 1.06Q36.27 1.06 36.87 1.20L36.87 1.20L36.87 1.20Q37.47 1.33 37.93 1.57L37.93 1.57L38.03 1.61L38.03 1.61Q37.85 2.12 37.76 2.54L37.76 2.54L37.76 2.54Q37.72 2.68 37.66 2.94L37.66 2.94L37.66 2.94Q37.60 3.21 37.56 3.47L37.56 3.47L37.26 3.43L37.15 2.42L37.15 2.42Q36.92 2.25 36.64 2.13L36.64 2.13L36.64 2.13Q36.36 2.01 36.04 1.93L36.04 1.93L36.04 1.93Q35.69 1.86 35.42 1.82L35.42 1.82L35.42 1.82Q35.15 1.79 34.79 1.79L34.79 1.79L34.79 1.79Q33.18 1.79 32.21 2.90L32.21 2.90L32.21 2.90Q31.24 4.00 31.24 5.81ZM43.80 6.64L43.80 6.64L43.11 6.61L43.11 6.61Q42.44 6.61 41.86 6.79L41.86 6.79L41.86 6.79Q41.29 6.96 40.86 7.24L40.86 7.24L40.86 7.24Q40.46 7.53 40.26 7.87L40.26 7.87L40.26 7.87Q40.06 8.21 40.06 8.65L40.06 8.65L40.06 8.65Q40.06 9.13 40.39 9.51L40.39 9.51L40.39 9.51Q40.76 9.88 41.34 9.88L41.34 9.88L41.34 9.88Q42.48 9.88 43.11 9.00L43.11 9.00L43.11 9.00Q43.43 8.54 43.61 7.95L43.61 7.95L43.61 7.95Q43.80 7.35 43.80 6.64ZM43.79 8.79L43.79 8.79L43.79 8.79Q43.16 10.00 42.45 10.37L42.45 10.37L42.45 10.37Q41.75 10.74 41.11 10.74L41.11 10.74L41.11 10.74Q40.13 10.74 39.53 10.15L39.53 10.15L39.53 10.15Q38.93 9.57 38.93 8.78L38.93 8.78L38.93 8.78Q38.93 7.64 40.13 6.84L40.13 6.84L40.13 6.84Q41.33 6.04 43.23 6.04L43.23 6.04L43.86 6.04L43.86 5.58L43.86 5.58Q43.86 4.60 43.45 4.19L43.45 4.19L43.45 4.19Q43.06 3.77 42.23 3.77L42.23 3.77L42.23 3.77Q41.56 3.77 40.95 3.99L40.95 3.99L40.32 4.24L40.36 4.98L40.07 5.08L39.45 3.67L39.45 3.67Q39.75 3.54 40.44 3.32L40.44 3.32L40.44 3.32Q41.13 3.11 42.39 3.11L42.39 3.11L42.39 3.11Q43.43 3.11 44.10 3.61L44.10 3.61L44.10 3.61Q44.78 4.11 44.78 4.96L44.78 4.96L44.78 8.22L44.78 8.22Q44.78 9.01 44.85 9.44L44.85 9.44L44.85 9.44Q44.92 9.70 44.99 9.85L44.99 9.85L44.99 9.85Q45.03 9.94 45.15 10.06L45.15 10.06L45.69 10.22L45.69 10.58L44.97 10.56L44.56 10.54L44.56 10.54Q44.44 10.54 44.33 10.54L44.33 10.54L44.33 10.54Q44.22 10.54 44.06 10.57L44.06 10.57L44.06 10.57Q43.94 10.57 43.87 10.04L43.87 10.04L43.87 10.04Q43.85 9.78 43.83 9.64L43.83 9.64L43.83 9.64Q43.79 9.11 43.79 8.79ZM48.16 6.97L48.16 7.82L48.23 10.07L49.20 10.22L49.20 10.57L47.64 10.53L46.25 10.57L46.25 10.22L47.08 10.07L47.11 7.83L47.11 6.29L47.05 3.93L46.15 3.78L46.15 3.43L46.15 3.43Q46.41 3.43 46.56 3.41L46.56 3.41L46.56 3.41Q46.71 3.40 47.06 3.32L47.06 3.32L47.06 3.32Q47.41 3.25 47.89 3.11L47.89 3.11L48.16 3.11L48.05 5.29L48.05 5.29Q48.53 4.21 49.10 3.65L49.10 3.65L49.10 3.65Q49.36 3.38 49.67 3.25L49.67 3.25L49.67 3.25Q49.97 3.11 50.30 3.11L50.30 3.11L50.30 3.11Q50.44 3.11 50.57 3.13L50.57 3.13L50.57 3.13Q50.70 3.16 50.83 3.20L50.83 3.20L50.83 3.20Q50.97 3.24 51.08 3.32L51.08 3.32L51.08 3.32Q50.82 3.81 50.63 4.25L50.63 4.25L50.63 4.25Q50.59 4.34 50.51 4.57L50.51 4.57L50.51 4.57Q50.42 4.80 50.39 4.91L50.39 4.91L50.39 4.91Q50.15 4.86 50.10 4.79L50.10 4.79L50.10 4.79Q50.10 4.69 50.13 4.66L50.13 4.66L50.13 4.66Q50.13 4.15 50.03 4.10L50.03 4.10L50.03 4.10Q49.94 4.06 49.82 4.06L49.82 4.06L49.82 4.06Q49.16 4.13 48.67 4.96L48.67 4.96L48.67 4.96Q48.45 5.39 48.30 5.90L48.30 5.90L48.30 5.90Q48.16 6.41 48.16 6.97L48.16 6.97ZM53.57 3.88L53.57 7.92L53.57 7.92Q53.57 8.96 53.77 9.42L53.77 9.42L53.77 9.42Q53.96 9.88 54.44 9.88L54.44 9.88L54.44 9.88Q54.77 9.88 55.03 9.71L55.03 9.71L55.03 9.71Q55.30 9.54 55.49 9.37L55.49 9.37L55.74 9.62L55.74 9.62Q55.62 9.82 55.40 10.04L55.40 10.04L55.40 10.04Q55.27 10.19 55.09 10.35L55.09 10.35L55.09 10.35Q54.68 10.74 53.99 10.74L53.99 10.74L53.99 10.74Q53.32 10.74 52.92 10.28L52.92 10.28L52.92 10.28Q52.52 9.83 52.52 9.02L52.52 9.02L52.52 3.88L51.69 3.94L51.69 3.54L52.52 3.30L52.45 1.60L53.63 1.27L53.57 3.31L55.36 3.29L55.09 3.91L53.57 3.88ZM62.08 8.52L62.45 8.81L62.45 8.81Q62.06 9.56 61.17 10.16L61.17 10.16L61.17 10.16Q60.71 10.45 60.25 10.59L60.25 10.59L60.25 10.59Q59.80 10.74 59.28 10.74L59.28 10.74L59.28 10.74Q57.72 10.74 56.84 9.78L56.84 9.78L56.84 9.78Q55.96 8.83 55.96 7.11L55.96 7.11L55.96 7.11Q55.96 5.46 57.00 4.28L57.00 4.28L57.00 4.28Q58.04 3.11 59.51 3.11L59.51 3.11L59.51 3.11Q60.80 3.11 61.50 3.81L61.50 3.81L61.50 3.81Q62.23 4.48 62.23 5.71L62.23 5.71L62.28 6.23L57.10 6.23L57.08 6.47L57.08 7.01L57.08 7.01Q57.08 8.30 57.75 9.09L57.75 9.09L57.75 9.09Q58.42 9.88 59.56 9.88L59.56 9.88L59.56 9.88Q60.02 9.88 60.40 9.77L60.40 9.77L60.40 9.77Q60.78 9.66 61.12 9.43L61.12 9.43L61.12 9.43Q61.47 9.20 61.71 8.96L61.71 8.96L61.71 8.96Q61.95 8.72 62.08 8.52L62.08 8.52ZM57.17 5.64L57.17 5.64L60.44 5.58L61.10 5.53L61.10 5.53Q61.10 4.62 60.69 4.16L60.69 4.16L60.69 4.16Q60.29 3.69 59.50 3.69L59.50 3.69L59.50 3.69Q58.45 3.69 57.75 4.48L57.75 4.48L57.75 4.48Q57.38 4.90 57.17 5.64ZM64.50 6.97L64.50 7.82L64.57 10.07L65.53 10.22L65.53 10.57L63.97 10.53L62.59 10.57L62.59 10.22L63.41 10.07L63.45 7.83L63.45 6.29L63.39 3.93L62.48 3.78L62.48 3.43L62.48 3.43Q62.74 3.43 62.89 3.41L62.89 3.41L62.89 3.41Q63.04 3.40 63.39 3.32L63.39 3.32L63.39 3.32Q63.74 3.25 64.22 3.11L64.22 3.11L64.50 3.11L64.39 5.29L64.39 5.29Q64.86 4.21 65.44 3.65L65.44 3.65L65.44 3.65Q65.70 3.38 66.00 3.25L66.00 3.25L66.00 3.25Q66.31 3.11 66.64 3.11L66.64 3.11L66.64 3.11Q66.77 3.11 66.90 3.13L66.90 3.13L66.90 3.13Q67.03 3.16 67.17 3.20L67.17 3.20L67.17 3.20Q67.31 3.24 67.41 3.32L67.41 3.32L67.41 3.32Q67.15 3.81 66.96 4.25L66.96 4.25L66.96 4.25Q66.93 4.34 66.84 4.57L66.84 4.57L66.84 4.57Q66.76 4.80 66.72 4.91L66.72 4.91L66.72 4.91Q66.49 4.86 66.44 4.79L66.44 4.79L66.44 4.79Q66.44 4.69 66.46 4.66L66.46 4.66L66.46 4.66Q66.46 4.15 66.37 4.10L66.37 4.10L66.37 4.10Q66.27 4.06 66.15 4.06L66.15 4.06L66.15 4.06Q65.50 4.13 65.01 4.96L65.01 4.96L65.01 4.96Q64.78 5.39 64.64 5.90L64.64 5.90L64.64 5.90Q64.50 6.41 64.50 6.97L64.50 6.97Z"></path></g><defs data-v-423bf9ae=""><linearGradient data-v-423bf9ae="" gradientTransform="rotate(25)" id="143d4f0c-d23c-4fe1-9610-eaab2123c126" x1="0%" y1="0%" x2="100%" y2="0%"><stop data-v-423bf9ae="" offset="0%" style="stop-color: rgb(255, 129, 21); stop-opacity: 1;"></stop><stop data-v-423bf9ae="" offset="100%" style="stop-color: rgb(14, 181, 117); stop-opacity: 1;"></stop></linearGradient></defs><g data-v-423bf9ae="" id="ec9c6da5-271c-4370-be9d-0053633b0846" transform="matrix(2.8125,0,0,2.8125,0,0)" stroke="none" fill="url(#143d4f0c-d23c-4fe1-9610-eaab2123c126)"><path d="M4.029 14.362L14.362 4.028l.707.707L4.736 15.07zM17.135 27.47L27.47 17.135l.707.707-10.333 10.333zM4.029 17.841l.707-.707 10.333 10.334-.707.707zM17.135 4.735l.708-.707L28.176 14.36l-.707.707z"></path><g><path d="M16 1.414l1.683 1.683L16 4.779l-1.683-1.683L16 1.414M16 0l-3.097 3.097L16 6.194l3.097-3.097L16 0zM16 27.221l1.683 1.683L16 30.586l-1.683-1.683L16 27.221m0-1.415l-3.097 3.097L16 32l3.097-3.097L16 25.806zM3.097 14.317L4.779 16l-1.683 1.683L1.414 16l1.683-1.683m0-1.414L0 16l3.097 3.097L6.194 16l-3.097-3.097zM28.903 14.317L30.586 16l-1.683 1.683L27.221 16l1.682-1.683m0-1.414L25.806 16l3.097 3.097L32 16l-3.097-3.097z"></path></g></g><!----></svg>